%TF.GenerationSoftware,KiCad,Pcbnew,(6.0.6)*%
%TF.CreationDate,2023-12-25T11:13:00+01:00*%
%TF.ProjectId,nixieClockPCB,6e697869-6543-46c6-9f63-6b5043422e6b,rev?*%
%TF.SameCoordinates,Original*%
%TF.FileFunction,Profile,NP*%
%FSLAX46Y46*%
G04 Gerber Fmt 4.6, Leading zero omitted, Abs format (unit mm)*
G04 Created by KiCad (PCBNEW (6.0.6)) date 2023-12-25 11:13:00*
%MOMM*%
%LPD*%
G01*
G04 APERTURE LIST*
%TA.AperFunction,Profile*%
%ADD10C,0.150000*%
%TD*%
%TA.AperFunction,Profile*%
%ADD11C,0.100000*%
%TD*%
G04 APERTURE END LIST*
D10*
X165595139Y-47264514D02*
X14595139Y-47264514D01*
X14595139Y-18264539D02*
G75*
G03*
X13595139Y-19264514I-39J-999961D01*
G01*
X166595139Y-19264514D02*
X166595139Y-46264514D01*
X13595139Y-46264514D02*
X13595139Y-19264514D01*
X14595139Y-18264514D02*
X165595139Y-18264514D01*
X166595086Y-19264514D02*
G75*
G03*
X165595139Y-18264514I-999986J14D01*
G01*
X13595086Y-46264514D02*
G75*
G03*
X14595139Y-47264514I1000014J14D01*
G01*
X165595139Y-47264539D02*
G75*
G03*
X166595139Y-46264514I-39J1000039D01*
G01*
D11*
X29116666Y-32764514D02*
G75*
G03*
X29116666Y-32764514I-1666666J0D01*
G01*
X24950000Y-32764514D02*
X29950000Y-32764514D01*
X27450000Y-30264514D02*
X27450000Y-35264514D01*
X154416666Y-32764514D02*
G75*
G03*
X154416666Y-32764514I-1666666J0D01*
G01*
X150250000Y-32764514D02*
X155250000Y-32764514D01*
X152750000Y-30264514D02*
X152750000Y-35264514D01*
X103416666Y-32764514D02*
G75*
G03*
X103416666Y-32764514I-1666666J0D01*
G01*
X99250000Y-32764514D02*
X104250000Y-32764514D01*
X101750000Y-30264514D02*
X101750000Y-35264514D01*
X132216666Y-32764514D02*
G75*
G03*
X132216666Y-32764514I-1666666J0D01*
G01*
X128050000Y-32764514D02*
X133050000Y-32764514D01*
X130550000Y-30264514D02*
X130550000Y-35264514D01*
X50416666Y-32764514D02*
G75*
G03*
X50416666Y-32764514I-1666666J0D01*
G01*
X46250000Y-32764514D02*
X51250000Y-32764514D01*
X48750000Y-30264514D02*
X48750000Y-35264514D01*
X80416666Y-32764514D02*
G75*
G03*
X80416666Y-32764514I-1666666J0D01*
G01*
X76250000Y-32764514D02*
X81250000Y-32764514D01*
X78750000Y-30264514D02*
X78750000Y-35264514D01*
M02*
