M48
; DRILL file {KiCad (6.0.6)} date Mon Dec 25 11:13:03 2023
; FORMAT={-:-/ absolute / inch / decimal}
; #@! TF.CreationDate,2023-12-25T11:13:03+01:00
; #@! TF.GenerationSoftware,Kicad,Pcbnew,(6.0.6)
; #@! TF.FileFunction,Plated,1,2,PTH
FMAT,2
INCH
; #@! TA.AperFunction,Plated,PTH,ViaDrill
T1C0.0157
; #@! TA.AperFunction,Plated,PTH,ViaDrill
T2C0.0197
; #@! TA.AperFunction,Plated,PTH,ComponentDrill
T3C0.0248
; #@! TA.AperFunction,Plated,PTH,ComponentDrill
T4C0.0256
; #@! TA.AperFunction,Plated,PTH,ComponentDrill
T5C0.0315
; #@! TA.AperFunction,Plated,PTH,ComponentDrill
T6C0.0472
%
G90
G05
T1
X0.6831Y-0.8858
X0.8307Y-0.932
X0.8799Y-0.8386
X1.2205Y-0.9252
X1.4173Y-0.9803
X1.4488Y-0.9252
X1.5118Y-0.8543
X1.6831Y-1.0059
X1.7146Y-1.1574
X1.9528Y-0.8524
X1.9803Y-0.9488
X2.0866Y-0.8406
X2.1998Y-0.8464
X2.2323Y-1.6614
X2.2736Y-0.9488
X2.3071Y-0.876
X2.3327Y-1.4724
X2.3661Y-0.7657
X2.372Y-0.9213
X2.4035Y-0.9582
X2.4311Y-1.6791
X2.4823Y-1.1772
X2.5453Y-1.6949
X2.5807Y-1.1772
X2.5827Y-1.435
X2.6358Y-1.7382
X2.7441Y-0.8366
X2.7815Y-0.9665
X2.8012Y-0.8248
X2.9119Y-0.8253
X3.1516Y-1.7283
X3.2539Y-1.687
X3.4331Y-0.937
X3.4528Y-1.3898
X3.5965Y-0.8268
X3.752Y-0.8602
X3.811Y-0.8366
X3.8701Y-0.9016
X4.0787Y-0.9921
X4.1122Y-1.7283
X4.3445Y-1.5906
X4.4449Y-1.5945
X4.5295Y-1.2323
X4.7977Y-1.184
X4.872Y-1.4882
X4.8947Y-0.8937
X4.9931Y-0.8514
X5.1142Y-1.6752
X5.1841Y-0.9094
X5.7205Y-1.2815
X5.7687Y-0.8475
X5.8681Y-0.876
X6.125Y-1.0059
X6.1811Y-0.8878
X6.2205Y-1.0177
X6.3138Y-1.0156
X6.326Y-1.26
X6.4724Y-0.9154
T2
X4.25Y-1.5453
T3
X0.934Y-1.2724
X0.9425Y-1.3426
X0.9591Y-1.2063
X0.9827Y-1.4008
X1.0121Y-1.1594
X1.0454Y-1.4337
X1.0807Y-1.1424
X1.116Y-1.4337
X1.1493Y-1.1594
X1.1787Y-1.4008
X1.2023Y-1.2063
X1.2189Y-1.3426
X1.2274Y-1.2724
X1.7789Y-1.2725
X1.7874Y-1.3427
X1.804Y-1.2064
X1.8276Y-1.4009
X1.857Y-1.1595
X1.8903Y-1.4338
X1.9256Y-1.1425
X1.9609Y-1.4338
X1.9942Y-1.1595
X2.0236Y-1.4009
X2.0472Y-1.2064
X2.0638Y-1.3427
X2.0723Y-1.2725
X2.96Y-1.2725
X2.9685Y-1.3427
X2.9851Y-1.2064
X3.0087Y-1.4009
X3.0381Y-1.1595
X3.0714Y-1.4338
X3.1067Y-1.1425
X3.142Y-1.4338
X3.1753Y-1.1595
X3.2047Y-1.4009
X3.2283Y-1.2064
X3.2449Y-1.3427
X3.2534Y-1.2725
X3.8655Y-1.2724
X3.874Y-1.3426
X3.8906Y-1.2063
X3.9142Y-1.4008
X3.9436Y-1.1594
X3.9769Y-1.4337
X4.0122Y-1.1424
X4.0475Y-1.4337
X4.0808Y-1.1594
X4.1102Y-1.4008
X4.1338Y-1.2063
X4.1504Y-1.3426
X4.1589Y-1.2724
X4.9994Y-1.2725
X5.0079Y-1.3427
X5.0245Y-1.2064
X5.0481Y-1.4009
X5.0775Y-1.1595
X5.1108Y-1.4338
X5.1461Y-1.1425
X5.1814Y-1.4338
X5.2147Y-1.1595
X5.2441Y-1.4009
X5.2677Y-1.2064
X5.2843Y-1.3427
X5.2928Y-1.2725
X5.8734Y-1.2725
X5.8819Y-1.3427
X5.8985Y-1.2064
X5.9221Y-1.4009
X5.9515Y-1.1595
X5.9848Y-1.4338
X6.0201Y-1.1425
X6.0554Y-1.4338
X6.0887Y-1.1595
X6.1181Y-1.4009
X6.1417Y-1.2064
X6.1583Y-1.3427
X6.1668Y-1.2725
T4
X1.8343Y-1.6693
X1.8843Y-1.6693
X1.9343Y-1.6693
X1.9843Y-1.6693
X2.0343Y-1.6693
X2.0843Y-1.6693
T5
X0.7301Y-0.7665
X0.7301Y-1.0665
X0.8301Y-0.7665
X0.8301Y-1.0665
X0.9301Y-0.7665
X0.9301Y-1.0665
X1.0301Y-0.7665
X1.0301Y-1.0665
X1.1301Y-0.7665
X1.1301Y-1.0665
X1.2301Y-0.7665
X1.2301Y-1.0665
X1.3301Y-0.7665
X1.3301Y-1.0665
X1.4301Y-0.7665
X1.4301Y-1.0665
X1.575Y-0.7667
X1.575Y-1.0667
X1.675Y-0.7667
X1.675Y-1.0667
X1.775Y-0.7667
X1.775Y-1.0667
X1.875Y-0.7667
X1.875Y-1.0667
X1.975Y-0.7667
X1.975Y-1.0667
X2.075Y-0.7667
X2.075Y-1.0667
X2.175Y-0.7667
X2.175Y-1.0667
X2.275Y-0.7667
X2.275Y-1.0667
X2.7561Y-0.7667
X2.7561Y-1.0667
X2.8561Y-0.7667
X2.8561Y-1.0667
X2.9561Y-0.7667
X2.9561Y-1.0667
X3.0561Y-0.7667
X3.0561Y-1.0667
X3.1561Y-0.7667
X3.1561Y-1.0667
X3.2561Y-0.7667
X3.2561Y-1.0667
X3.3561Y-0.7667
X3.3561Y-1.0667
X3.4561Y-0.7667
X3.4561Y-1.0667
X3.6616Y-0.7665
X3.6616Y-1.0665
X3.7616Y-0.7665
X3.7616Y-1.0665
X3.8616Y-0.7665
X3.8616Y-1.0665
X3.9616Y-0.7665
X3.9616Y-1.0665
X4.0616Y-0.7665
X4.0616Y-1.0665
X4.1616Y-0.7665
X4.1616Y-1.0665
X4.2616Y-0.7665
X4.2616Y-1.0665
X4.3616Y-0.7665
X4.3616Y-1.0665
X4.7955Y-0.7667
X4.7955Y-1.0667
X4.8955Y-0.7667
X4.8955Y-1.0667
X4.9955Y-0.7667
X4.9955Y-1.0667
X5.0955Y-0.7667
X5.0955Y-1.0667
X5.1955Y-0.7667
X5.1955Y-1.0667
X5.2955Y-0.7667
X5.2955Y-1.0667
X5.3955Y-0.7667
X5.3955Y-1.0667
X5.4955Y-0.7667
X5.4955Y-1.0667
X5.6695Y-0.7667
X5.6695Y-1.0667
X5.7695Y-0.7667
X5.7695Y-1.0667
X5.8695Y-0.7667
X5.8695Y-1.0667
X5.9695Y-0.7667
X5.9695Y-1.0667
X6.0695Y-0.7667
X6.0695Y-1.0667
X6.1695Y-0.7667
X6.1695Y-1.0667
X6.2695Y-0.7667
X6.2695Y-1.0667
X6.3695Y-0.7667
X6.3695Y-1.0667
T6
X0.7343Y-1.1831
X0.7343Y-1.7831
X1.6004Y-1.1843
X1.6004Y-1.7843
X2.7539Y-1.1843
X2.7539Y-1.7843
X3.7028Y-1.1752
X3.7028Y-1.7752
X4.8819Y-1.685
X5.4819Y-1.685
X5.7039Y-1.626
X6.3039Y-1.626
T0
M30
