%TF.GenerationSoftware,KiCad,Pcbnew,(6.0.6)*%
%TF.CreationDate,2023-12-25T11:13:00+01:00*%
%TF.ProjectId,nixieClockPCB,6e697869-6543-46c6-9f63-6b5043422e6b,rev?*%
%TF.SameCoordinates,Original*%
%TF.FileFunction,Legend,Bot*%
%TF.FilePolarity,Positive*%
%FSLAX46Y46*%
G04 Gerber Fmt 4.6, Leading zero omitted, Abs format (unit mm)*
G04 Created by KiCad (PCBNEW (6.0.6)) date 2023-12-25 11:13:00*
%MOMM*%
%LPD*%
G01*
G04 APERTURE LIST*
%ADD10C,0.150000*%
%ADD11C,0.152400*%
%ADD12C,0.203200*%
%ADD13C,0.497840*%
G04 APERTURE END LIST*
D10*
X52500000Y-44488095D02*
X52452380Y-44392857D01*
X52452380Y-44250000D01*
X52500000Y-44107142D01*
X52595238Y-44011904D01*
X52690476Y-43964285D01*
X52880952Y-43916666D01*
X53023809Y-43916666D01*
X53214285Y-43964285D01*
X53309523Y-44011904D01*
X53404761Y-44107142D01*
X53452380Y-44250000D01*
X53452380Y-44345238D01*
X53404761Y-44488095D01*
X53357142Y-44535714D01*
X53023809Y-44535714D01*
X53023809Y-44345238D01*
X53452380Y-44964285D02*
X52452380Y-44964285D01*
X53452380Y-45535714D01*
X52452380Y-45535714D01*
X53452380Y-46011904D02*
X52452380Y-46011904D01*
X52452380Y-46250000D01*
X52500000Y-46392857D01*
X52595238Y-46488095D01*
X52690476Y-46535714D01*
X52880952Y-46583333D01*
X53023809Y-46583333D01*
X53214285Y-46535714D01*
X53309523Y-46488095D01*
X53404761Y-46392857D01*
X53452380Y-46250000D01*
X53452380Y-46011904D01*
X46907142Y-44804761D02*
X46954761Y-44757142D01*
X47002380Y-44614285D01*
X47002380Y-44519047D01*
X46954761Y-44376190D01*
X46859523Y-44280952D01*
X46764285Y-44233333D01*
X46573809Y-44185714D01*
X46430952Y-44185714D01*
X46240476Y-44233333D01*
X46145238Y-44280952D01*
X46050000Y-44376190D01*
X46002380Y-44519047D01*
X46002380Y-44614285D01*
X46050000Y-44757142D01*
X46097619Y-44804761D01*
X47002380Y-45709523D02*
X47002380Y-45233333D01*
X46002380Y-45233333D01*
X47002380Y-46042857D02*
X46002380Y-46042857D01*
X47002380Y-46614285D02*
X46430952Y-46185714D01*
X46002380Y-46614285D02*
X46573809Y-46042857D01*
X48302380Y-43600000D02*
X47302380Y-43600000D01*
X47302380Y-43838095D01*
X47350000Y-43980952D01*
X47445238Y-44076190D01*
X47540476Y-44123809D01*
X47730952Y-44171428D01*
X47873809Y-44171428D01*
X48064285Y-44123809D01*
X48159523Y-44076190D01*
X48254761Y-43980952D01*
X48302380Y-43838095D01*
X48302380Y-43600000D01*
X48016666Y-44552380D02*
X48016666Y-45028571D01*
X48302380Y-44457142D02*
X47302380Y-44790476D01*
X48302380Y-45123809D01*
X47302380Y-45314285D02*
X47302380Y-45885714D01*
X48302380Y-45600000D02*
X47302380Y-45600000D01*
X48016666Y-46171428D02*
X48016666Y-46647619D01*
X48302380Y-46076190D02*
X47302380Y-46409523D01*
X48302380Y-46742857D01*
X51152380Y-45409523D02*
X51152380Y-44933333D01*
X51628571Y-44885714D01*
X51580952Y-44933333D01*
X51533333Y-45028571D01*
X51533333Y-45266666D01*
X51580952Y-45361904D01*
X51628571Y-45409523D01*
X51723809Y-45457142D01*
X51961904Y-45457142D01*
X52057142Y-45409523D01*
X52104761Y-45361904D01*
X52152380Y-45266666D01*
X52152380Y-45028571D01*
X52104761Y-44933333D01*
X52057142Y-44885714D01*
X51152380Y-45742857D02*
X52152380Y-46076190D01*
X51152380Y-46409523D01*
X49552380Y-45100000D02*
X49552380Y-44623809D01*
X48552380Y-44623809D01*
X49266666Y-45385714D02*
X49266666Y-45861904D01*
X49552380Y-45290476D02*
X48552380Y-45623809D01*
X49552380Y-45957142D01*
X48552380Y-46147619D02*
X48552380Y-46719047D01*
X49552380Y-46433333D02*
X48552380Y-46433333D01*
X50852380Y-44885714D02*
X49852380Y-44885714D01*
X50328571Y-44885714D02*
X50328571Y-45457142D01*
X50852380Y-45457142D02*
X49852380Y-45457142D01*
X49852380Y-45790476D02*
X50852380Y-46123809D01*
X49852380Y-46457142D01*
D11*
%TO.C,U8*%
X79072023Y-40955480D02*
X80100119Y-40955480D01*
X80221071Y-41015957D01*
X80281547Y-41076433D01*
X80342023Y-41197385D01*
X80342023Y-41439290D01*
X80281547Y-41560242D01*
X80221071Y-41620719D01*
X80100119Y-41681195D01*
X79072023Y-41681195D01*
X79616309Y-42467385D02*
X79555833Y-42346433D01*
X79495357Y-42285957D01*
X79374404Y-42225480D01*
X79313928Y-42225480D01*
X79192976Y-42285957D01*
X79132500Y-42346433D01*
X79072023Y-42467385D01*
X79072023Y-42709290D01*
X79132500Y-42830242D01*
X79192976Y-42890719D01*
X79313928Y-42951195D01*
X79374404Y-42951195D01*
X79495357Y-42890719D01*
X79555833Y-42830242D01*
X79616309Y-42709290D01*
X79616309Y-42467385D01*
X79676785Y-42346433D01*
X79737261Y-42285957D01*
X79858214Y-42225480D01*
X80100119Y-42225480D01*
X80221071Y-42285957D01*
X80281547Y-42346433D01*
X80342023Y-42467385D01*
X80342023Y-42709290D01*
X80281547Y-42830242D01*
X80221071Y-42890719D01*
X80100119Y-42951195D01*
X79858214Y-42951195D01*
X79737261Y-42890719D01*
X79676785Y-42830242D01*
X79616309Y-42709290D01*
D10*
X90486904Y-40554523D02*
X89640238Y-40554523D01*
X90184523Y-41824523D01*
X88612142Y-40977857D02*
X88612142Y-41824523D01*
X88914523Y-40494047D02*
X89216904Y-41401190D01*
X88430714Y-41401190D01*
X88007380Y-41461666D02*
X87402619Y-41461666D01*
X88128333Y-41824523D02*
X87705000Y-40554523D01*
X87281666Y-41824523D01*
X86858333Y-41824523D02*
X86858333Y-40554523D01*
X86858333Y-41159285D02*
X86132619Y-41159285D01*
X86132619Y-41824523D02*
X86132619Y-40554523D01*
X84802142Y-41703571D02*
X84862619Y-41764047D01*
X85044047Y-41824523D01*
X85165000Y-41824523D01*
X85346428Y-41764047D01*
X85467380Y-41643095D01*
X85527857Y-41522142D01*
X85588333Y-41280238D01*
X85588333Y-41098809D01*
X85527857Y-40856904D01*
X85467380Y-40735952D01*
X85346428Y-40615000D01*
X85165000Y-40554523D01*
X85044047Y-40554523D01*
X84862619Y-40615000D01*
X84802142Y-40675476D01*
X83653095Y-40554523D02*
X84257857Y-40554523D01*
X84318333Y-41159285D01*
X84257857Y-41098809D01*
X84136904Y-41038333D01*
X83834523Y-41038333D01*
X83713571Y-41098809D01*
X83653095Y-41159285D01*
X83592619Y-41280238D01*
X83592619Y-41582619D01*
X83653095Y-41703571D01*
X83713571Y-41764047D01*
X83834523Y-41824523D01*
X84136904Y-41824523D01*
X84257857Y-41764047D01*
X84318333Y-41703571D01*
X82987857Y-41824523D02*
X82745952Y-41824523D01*
X82625000Y-41764047D01*
X82564523Y-41703571D01*
X82443571Y-41522142D01*
X82383095Y-41280238D01*
X82383095Y-40796428D01*
X82443571Y-40675476D01*
X82504047Y-40615000D01*
X82625000Y-40554523D01*
X82866904Y-40554523D01*
X82987857Y-40615000D01*
X83048333Y-40675476D01*
X83108809Y-40796428D01*
X83108809Y-41098809D01*
X83048333Y-41219761D01*
X82987857Y-41280238D01*
X82866904Y-41340714D01*
X82625000Y-41340714D01*
X82504047Y-41280238D01*
X82443571Y-41219761D01*
X82383095Y-41098809D01*
X81234047Y-40554523D02*
X81838809Y-40554523D01*
X81899285Y-41159285D01*
X81838809Y-41098809D01*
X81717857Y-41038333D01*
X81415476Y-41038333D01*
X81294523Y-41098809D01*
X81234047Y-41159285D01*
X81173571Y-41280238D01*
X81173571Y-41582619D01*
X81234047Y-41703571D01*
X81294523Y-41764047D01*
X81415476Y-41824523D01*
X81717857Y-41824523D01*
X81838809Y-41764047D01*
X81899285Y-41703571D01*
D11*
%TO.C,U9*%
X108072023Y-38805480D02*
X109100119Y-38805480D01*
X109221071Y-38865957D01*
X109281547Y-38926433D01*
X109342023Y-39047385D01*
X109342023Y-39289290D01*
X109281547Y-39410242D01*
X109221071Y-39470719D01*
X109100119Y-39531195D01*
X108072023Y-39531195D01*
X109342023Y-40196433D02*
X109342023Y-40438338D01*
X109281547Y-40559290D01*
X109221071Y-40619766D01*
X109039642Y-40740719D01*
X108797738Y-40801195D01*
X108313928Y-40801195D01*
X108192976Y-40740719D01*
X108132500Y-40680242D01*
X108072023Y-40559290D01*
X108072023Y-40317385D01*
X108132500Y-40196433D01*
X108192976Y-40135957D01*
X108313928Y-40075480D01*
X108616309Y-40075480D01*
X108737261Y-40135957D01*
X108797738Y-40196433D01*
X108858214Y-40317385D01*
X108858214Y-40559290D01*
X108797738Y-40680242D01*
X108737261Y-40740719D01*
X108616309Y-40801195D01*
D10*
X119486904Y-38404523D02*
X118640238Y-38404523D01*
X119184523Y-39674523D01*
X117612142Y-38827857D02*
X117612142Y-39674523D01*
X117914523Y-38344047D02*
X118216904Y-39251190D01*
X117430714Y-39251190D01*
X117007380Y-39311666D02*
X116402619Y-39311666D01*
X117128333Y-39674523D02*
X116705000Y-38404523D01*
X116281666Y-39674523D01*
X115858333Y-39674523D02*
X115858333Y-38404523D01*
X115858333Y-39009285D02*
X115132619Y-39009285D01*
X115132619Y-39674523D02*
X115132619Y-38404523D01*
X113802142Y-39553571D02*
X113862619Y-39614047D01*
X114044047Y-39674523D01*
X114165000Y-39674523D01*
X114346428Y-39614047D01*
X114467380Y-39493095D01*
X114527857Y-39372142D01*
X114588333Y-39130238D01*
X114588333Y-38948809D01*
X114527857Y-38706904D01*
X114467380Y-38585952D01*
X114346428Y-38465000D01*
X114165000Y-38404523D01*
X114044047Y-38404523D01*
X113862619Y-38465000D01*
X113802142Y-38525476D01*
X112653095Y-38404523D02*
X113257857Y-38404523D01*
X113318333Y-39009285D01*
X113257857Y-38948809D01*
X113136904Y-38888333D01*
X112834523Y-38888333D01*
X112713571Y-38948809D01*
X112653095Y-39009285D01*
X112592619Y-39130238D01*
X112592619Y-39432619D01*
X112653095Y-39553571D01*
X112713571Y-39614047D01*
X112834523Y-39674523D01*
X113136904Y-39674523D01*
X113257857Y-39614047D01*
X113318333Y-39553571D01*
X111987857Y-39674523D02*
X111745952Y-39674523D01*
X111625000Y-39614047D01*
X111564523Y-39553571D01*
X111443571Y-39372142D01*
X111383095Y-39130238D01*
X111383095Y-38646428D01*
X111443571Y-38525476D01*
X111504047Y-38465000D01*
X111625000Y-38404523D01*
X111866904Y-38404523D01*
X111987857Y-38465000D01*
X112048333Y-38525476D01*
X112108809Y-38646428D01*
X112108809Y-38948809D01*
X112048333Y-39069761D01*
X111987857Y-39130238D01*
X111866904Y-39190714D01*
X111625000Y-39190714D01*
X111504047Y-39130238D01*
X111443571Y-39069761D01*
X111383095Y-38948809D01*
X110234047Y-38404523D02*
X110838809Y-38404523D01*
X110899285Y-39009285D01*
X110838809Y-38948809D01*
X110717857Y-38888333D01*
X110415476Y-38888333D01*
X110294523Y-38948809D01*
X110234047Y-39009285D01*
X110173571Y-39130238D01*
X110173571Y-39432619D01*
X110234047Y-39553571D01*
X110294523Y-39614047D01*
X110415476Y-39674523D01*
X110717857Y-39674523D01*
X110838809Y-39614047D01*
X110899285Y-39553571D01*
D11*
%TO.C,U7*%
X54409373Y-36805480D02*
X55437469Y-36805480D01*
X55558421Y-36865957D01*
X55618897Y-36926433D01*
X55679373Y-37047385D01*
X55679373Y-37289290D01*
X55618897Y-37410242D01*
X55558421Y-37470719D01*
X55437469Y-37531195D01*
X54409373Y-37531195D01*
X54409373Y-38015004D02*
X54409373Y-38861671D01*
X55679373Y-38317385D01*
D10*
X65824254Y-36404523D02*
X64977588Y-36404523D01*
X65521873Y-37674523D01*
X63949492Y-36827857D02*
X63949492Y-37674523D01*
X64251873Y-36344047D02*
X64554254Y-37251190D01*
X63768064Y-37251190D01*
X63344730Y-37311666D02*
X62739969Y-37311666D01*
X63465683Y-37674523D02*
X63042350Y-36404523D01*
X62619016Y-37674523D01*
X62195683Y-37674523D02*
X62195683Y-36404523D01*
X62195683Y-37009285D02*
X61469969Y-37009285D01*
X61469969Y-37674523D02*
X61469969Y-36404523D01*
X60139492Y-37553571D02*
X60199969Y-37614047D01*
X60381397Y-37674523D01*
X60502350Y-37674523D01*
X60683778Y-37614047D01*
X60804730Y-37493095D01*
X60865207Y-37372142D01*
X60925683Y-37130238D01*
X60925683Y-36948809D01*
X60865207Y-36706904D01*
X60804730Y-36585952D01*
X60683778Y-36465000D01*
X60502350Y-36404523D01*
X60381397Y-36404523D01*
X60199969Y-36465000D01*
X60139492Y-36525476D01*
X58990445Y-36404523D02*
X59595207Y-36404523D01*
X59655683Y-37009285D01*
X59595207Y-36948809D01*
X59474254Y-36888333D01*
X59171873Y-36888333D01*
X59050921Y-36948809D01*
X58990445Y-37009285D01*
X58929969Y-37130238D01*
X58929969Y-37432619D01*
X58990445Y-37553571D01*
X59050921Y-37614047D01*
X59171873Y-37674523D01*
X59474254Y-37674523D01*
X59595207Y-37614047D01*
X59655683Y-37553571D01*
X58325207Y-37674523D02*
X58083302Y-37674523D01*
X57962350Y-37614047D01*
X57901873Y-37553571D01*
X57780921Y-37372142D01*
X57720445Y-37130238D01*
X57720445Y-36646428D01*
X57780921Y-36525476D01*
X57841397Y-36465000D01*
X57962350Y-36404523D01*
X58204254Y-36404523D01*
X58325207Y-36465000D01*
X58385683Y-36525476D01*
X58446159Y-36646428D01*
X58446159Y-36948809D01*
X58385683Y-37069761D01*
X58325207Y-37130238D01*
X58204254Y-37190714D01*
X57962350Y-37190714D01*
X57841397Y-37130238D01*
X57780921Y-37069761D01*
X57720445Y-36948809D01*
X56571397Y-36404523D02*
X57176159Y-36404523D01*
X57236635Y-37009285D01*
X57176159Y-36948809D01*
X57055207Y-36888333D01*
X56752826Y-36888333D01*
X56631873Y-36948809D01*
X56571397Y-37009285D01*
X56510921Y-37130238D01*
X56510921Y-37432619D01*
X56571397Y-37553571D01*
X56631873Y-37614047D01*
X56752826Y-37674523D01*
X57055207Y-37674523D01*
X57176159Y-37614047D01*
X57236635Y-37553571D01*
D12*
%TO.C,U8*%
X90897780Y-39601540D02*
X90897780Y-38600780D01*
X90897780Y-39601540D02*
X80702220Y-39601540D01*
X80702220Y-39601540D02*
X80702220Y-43899220D01*
X80702220Y-38600780D02*
X80702220Y-39601540D01*
X90897780Y-43899220D02*
X90897780Y-39601540D01*
D13*
X80328840Y-38100400D02*
G75*
G03*
X80328840Y-38100400I-127000J0D01*
G01*
D12*
%TO.C,U9*%
X109702220Y-37451540D02*
X109702220Y-41749220D01*
X119897780Y-41749220D02*
X119897780Y-37451540D01*
X109702220Y-36450780D02*
X109702220Y-37451540D01*
X119897780Y-37451540D02*
X119897780Y-36450780D01*
X119897780Y-37451540D02*
X109702220Y-37451540D01*
D13*
X109328840Y-35950400D02*
G75*
G03*
X109328840Y-35950400I-127000J0D01*
G01*
D12*
%TO.C,U7*%
X56039570Y-35451540D02*
X56039570Y-39749220D01*
X66235130Y-35451540D02*
X66235130Y-34450780D01*
X56039570Y-34450780D02*
X56039570Y-35451540D01*
X66235130Y-35451540D02*
X56039570Y-35451540D01*
X66235130Y-39749220D02*
X66235130Y-35451540D01*
D13*
X55666190Y-33950400D02*
G75*
G03*
X55666190Y-33950400I-127000J0D01*
G01*
%TD*%
M02*
