%TF.GenerationSoftware,KiCad,Pcbnew,(6.0.6)*%
%TF.CreationDate,2023-12-25T11:13:00+01:00*%
%TF.ProjectId,nixieClockPCB,6e697869-6543-46c6-9f63-6b5043422e6b,rev?*%
%TF.SameCoordinates,Original*%
%TF.FileFunction,Soldermask,Bot*%
%TF.FilePolarity,Negative*%
%FSLAX46Y46*%
G04 Gerber Fmt 4.6, Leading zero omitted, Abs format (unit mm)*
G04 Created by KiCad (PCBNEW (6.0.6)) date 2023-12-25 11:13:00*
%MOMM*%
%LPD*%
G01*
G04 APERTURE LIST*
%ADD10C,2.400000*%
%ADD11O,2.400000X2.400000*%
%ADD12O,1.000000X1.000000*%
%ADD13R,1.000000X1.000000*%
%ADD14C,1.137920*%
%ADD15R,1.600000X1.600000*%
%ADD16O,1.600000X1.600000*%
%ADD17R,0.599440X2.199640*%
G04 APERTURE END LIST*
D10*
%TO.C,R2*%
X40650000Y-30080000D03*
D11*
X40650000Y-45320000D03*
%TD*%
D12*
%TO.C,J1*%
X52940000Y-42400000D03*
X51670000Y-42400000D03*
X50400000Y-42400000D03*
X49130000Y-42400000D03*
X47860000Y-42400000D03*
D13*
X46590000Y-42400000D03*
%TD*%
D10*
%TO.C,R3*%
X69950000Y-30080000D03*
D11*
X69950000Y-45320000D03*
%TD*%
D14*
%TO.C,N6*%
X154652929Y-29452191D03*
X151168049Y-29452191D03*
X155399689Y-35583751D03*
X149184309Y-32322391D03*
X150421289Y-35583751D03*
X152013869Y-36419411D03*
X153807109Y-36419411D03*
X149821849Y-30643451D03*
X156636669Y-32322391D03*
X155999129Y-30643451D03*
X152910489Y-29020391D03*
X156420769Y-34105471D03*
X149400209Y-34105471D03*
%TD*%
D15*
%TO.C,U5*%
X139585489Y-19474511D03*
D16*
X137045489Y-19474511D03*
X134505489Y-19474511D03*
X131965489Y-19474511D03*
X129425489Y-19474511D03*
X126885489Y-19474511D03*
X124345489Y-19474511D03*
X121805489Y-19474511D03*
X121805489Y-27094511D03*
X124345489Y-27094511D03*
X126885489Y-27094511D03*
X129425489Y-27094511D03*
X131965489Y-27094511D03*
X134505489Y-27094511D03*
X137045489Y-27094511D03*
X139585489Y-27094511D03*
%TD*%
D10*
%TO.C,R4*%
X94050000Y-29850000D03*
D11*
X94050000Y-45090000D03*
%TD*%
D14*
%TO.C,N3*%
X80652929Y-29452191D03*
X77168049Y-29452191D03*
X81399689Y-35583751D03*
X75184309Y-32322391D03*
X76421289Y-35583751D03*
X78013869Y-36419411D03*
X79807109Y-36419411D03*
X75821849Y-30643451D03*
X82636669Y-32322391D03*
X81999129Y-30643451D03*
X78910489Y-29020391D03*
X82420769Y-34105471D03*
X75400209Y-34105471D03*
%TD*%
%TO.C,N4*%
X103652929Y-29447920D03*
X100168049Y-29447920D03*
X104399689Y-35579480D03*
X98184309Y-32318120D03*
X99421289Y-35579480D03*
X101013869Y-36415140D03*
X102807109Y-36415140D03*
X98821849Y-30639180D03*
X105636669Y-32318120D03*
X104999129Y-30639180D03*
X101910489Y-29016120D03*
X105420769Y-34101200D03*
X98400209Y-34101200D03*
%TD*%
D15*
%TO.C,U4*%
X110785489Y-19470240D03*
D16*
X108245489Y-19470240D03*
X105705489Y-19470240D03*
X103165489Y-19470240D03*
X100625489Y-19470240D03*
X98085489Y-19470240D03*
X95545489Y-19470240D03*
X93005489Y-19470240D03*
X93005489Y-27090240D03*
X95545489Y-27090240D03*
X98085489Y-27090240D03*
X100625489Y-27090240D03*
X103165489Y-27090240D03*
X105705489Y-27090240D03*
X108245489Y-27090240D03*
X110785489Y-27090240D03*
%TD*%
D15*
%TO.C,U3*%
X87785489Y-19474511D03*
D16*
X85245489Y-19474511D03*
X82705489Y-19474511D03*
X80165489Y-19474511D03*
X77625489Y-19474511D03*
X75085489Y-19474511D03*
X72545489Y-19474511D03*
X70005489Y-19474511D03*
X70005489Y-27094511D03*
X72545489Y-27094511D03*
X75085489Y-27094511D03*
X77625489Y-27094511D03*
X80165489Y-27094511D03*
X82705489Y-27094511D03*
X85245489Y-27094511D03*
X87785489Y-27094511D03*
%TD*%
D15*
%TO.C,U2*%
X57785489Y-19474511D03*
D16*
X55245489Y-19474511D03*
X52705489Y-19474511D03*
X50165489Y-19474511D03*
X47625489Y-19474511D03*
X45085489Y-19474511D03*
X42545489Y-19474511D03*
X40005489Y-19474511D03*
X40005489Y-27094511D03*
X42545489Y-27094511D03*
X45085489Y-27094511D03*
X47625489Y-27094511D03*
X50165489Y-27094511D03*
X52705489Y-27094511D03*
X55245489Y-27094511D03*
X57785489Y-27094511D03*
%TD*%
D15*
%TO.C,U1*%
X36325000Y-19470240D03*
D16*
X33785000Y-19470240D03*
X31245000Y-19470240D03*
X28705000Y-19470240D03*
X26165000Y-19470240D03*
X23625000Y-19470240D03*
X21085000Y-19470240D03*
X18545000Y-19470240D03*
X18545000Y-27090240D03*
X21085000Y-27090240D03*
X23625000Y-27090240D03*
X26165000Y-27090240D03*
X28705000Y-27090240D03*
X31245000Y-27090240D03*
X33785000Y-27090240D03*
X36325000Y-27090240D03*
%TD*%
D10*
%TO.C,R1*%
X18650000Y-30050000D03*
D11*
X18650000Y-45290000D03*
%TD*%
D15*
%TO.C,U6*%
X161785489Y-19474511D03*
D16*
X159245489Y-19474511D03*
X156705489Y-19474511D03*
X154165489Y-19474511D03*
X151625489Y-19474511D03*
X149085489Y-19474511D03*
X146545489Y-19474511D03*
X144005489Y-19474511D03*
X144005489Y-27094511D03*
X146545489Y-27094511D03*
X149085489Y-27094511D03*
X151625489Y-27094511D03*
X154165489Y-27094511D03*
X156705489Y-27094511D03*
X159245489Y-27094511D03*
X161785489Y-27094511D03*
%TD*%
D14*
%TO.C,N1*%
X29192440Y-29447920D03*
X25707560Y-29447920D03*
X29939200Y-35579480D03*
X23723820Y-32318120D03*
X24960800Y-35579480D03*
X26553380Y-36415140D03*
X28346620Y-36415140D03*
X24361360Y-30639180D03*
X31176180Y-32318120D03*
X30538640Y-30639180D03*
X27450000Y-29016120D03*
X30960280Y-34101200D03*
X23939720Y-34101200D03*
%TD*%
D10*
%TO.C,R6*%
X144880000Y-41300000D03*
D11*
X160120000Y-41300000D03*
%TD*%
D10*
%TO.C,R5*%
X124000000Y-42800000D03*
D11*
X139240000Y-42800000D03*
%TD*%
D14*
%TO.C,N2*%
X50652929Y-29452191D03*
X47168049Y-29452191D03*
X51399689Y-35583751D03*
X45184309Y-32322391D03*
X46421289Y-35583751D03*
X48013869Y-36419411D03*
X49807109Y-36419411D03*
X45821849Y-30643451D03*
X52636669Y-32322391D03*
X51999129Y-30643451D03*
X48910489Y-29020391D03*
X52420769Y-34105471D03*
X45400209Y-34105471D03*
%TD*%
%TO.C,N5*%
X132452929Y-29452191D03*
X128968049Y-29452191D03*
X133199689Y-35583751D03*
X126984309Y-32322391D03*
X128221289Y-35583751D03*
X129813869Y-36419411D03*
X131607109Y-36419411D03*
X127621849Y-30643451D03*
X134436669Y-32322391D03*
X133799129Y-30643451D03*
X130710489Y-29020391D03*
X134220769Y-34105471D03*
X127200209Y-34105471D03*
%TD*%
D17*
%TO.C,U8*%
X81355000Y-37950540D03*
X82625000Y-37950540D03*
X83895000Y-37950540D03*
X85165000Y-37950540D03*
X86435000Y-37950540D03*
X87705000Y-37950540D03*
X88975000Y-37950540D03*
X90245000Y-37950540D03*
X90245000Y-44549460D03*
X88975000Y-44549460D03*
X87705000Y-44549460D03*
X86435000Y-44549460D03*
X85165000Y-44549460D03*
X83895000Y-44549460D03*
X82625000Y-44549460D03*
X81355000Y-44549460D03*
%TD*%
%TO.C,U9*%
X110355000Y-35800540D03*
X111625000Y-35800540D03*
X112895000Y-35800540D03*
X114165000Y-35800540D03*
X115435000Y-35800540D03*
X116705000Y-35800540D03*
X117975000Y-35800540D03*
X119245000Y-35800540D03*
X119245000Y-42399460D03*
X117975000Y-42399460D03*
X116705000Y-42399460D03*
X115435000Y-42399460D03*
X114165000Y-42399460D03*
X112895000Y-42399460D03*
X111625000Y-42399460D03*
X110355000Y-42399460D03*
%TD*%
%TO.C,U7*%
X56692350Y-33800540D03*
X57962350Y-33800540D03*
X59232350Y-33800540D03*
X60502350Y-33800540D03*
X61772350Y-33800540D03*
X63042350Y-33800540D03*
X64312350Y-33800540D03*
X65582350Y-33800540D03*
X65582350Y-40399460D03*
X64312350Y-40399460D03*
X63042350Y-40399460D03*
X61772350Y-40399460D03*
X60502350Y-40399460D03*
X59232350Y-40399460D03*
X57962350Y-40399460D03*
X56692350Y-40399460D03*
%TD*%
M02*
